<svg xmlns="http://www.w3.org/2000/svg" width="1920" height="820" viewBox="0 0 1920 820"><defs>
<linearGradient id="sky" x1="0" y1="0" x2="0" y2="1"><stop offset="0" stop-color="#65c9f5"/><stop offset=".58" stop-color="#b9e8fb"/><stop offset="1" stop-color="#edf9ff"/></linearGradient>
<linearGradient id="sunset" x1="0" y1="0" x2="0" y2="1"><stop offset="0" stop-color="#f3aa68"/><stop offset=".48" stop-color="#ffd394"/><stop offset="1" stop-color="#f8e2bd"/></linearGradient>
<linearGradient id="floor" x1="0" y1="0" x2="0" y2="1"><stop offset="0" stop-color="#efebe3"/><stop offset="1" stop-color="#c7c5c1"/></linearGradient>
<linearGradient id="wood" x1="0" y1="0" x2="1" y2="0"><stop offset="0" stop-color="#ad7448"/><stop offset=".5" stop-color="#c78b58"/><stop offset="1" stop-color="#986039"/></linearGradient>
<linearGradient id="glass" x1="0" y1="0" x2="1" y2="1"><stop offset="0" stop-color="#ecfbff" stop-opacity=".72"/><stop offset=".5" stop-color="#c8ebf8" stop-opacity=".38"/><stop offset="1" stop-color="#9fcfe2" stop-opacity=".48"/></linearGradient>
<filter id="shadow" x="-20%" y="-20%" width="140%" height="160%"><feDropShadow dx="0" dy="6" stdDeviation="7" flood-color="#101820" flood-opacity=".20"/></filter>
<filter id="softShadow" x="-20%" y="-20%" width="140%" height="160%"><feDropShadow dx="0" dy="3" stdDeviation="3" flood-color="#101820" flood-opacity=".15"/></filter>
<pattern id="tile" width="64" height="64" patternUnits="userSpaceOnUse"><rect width="64" height="64" fill="#eeeae2"/><path d="M64 0H0V64" fill="none" stroke="#d0cbc1" stroke-width="1"/></pattern>
</defs><rect width="1920" height="82" fill="#172636"/><rect y="79" width="1920" height="6" fill="#405263"/><path d="M110 0V30" stroke="#0f171f" stroke-width="4"/><ellipse cx="110" cy="42" rx="25" ry="10" fill="#131c25"/><ellipse cx="110" cy="44" rx="15" ry="4" fill="#fff2c9" opacity=".95"/><path d="M430 0V30" stroke="#0f171f" stroke-width="4"/><ellipse cx="430" cy="42" rx="25" ry="10" fill="#131c25"/><ellipse cx="430" cy="44" rx="15" ry="4" fill="#fff2c9" opacity=".95"/><path d="M770 0V30" stroke="#0f171f" stroke-width="4"/><ellipse cx="770" cy="42" rx="25" ry="10" fill="#131c25"/><ellipse cx="770" cy="44" rx="15" ry="4" fill="#fff2c9" opacity=".95"/><path d="M1110 0V30" stroke="#0f171f" stroke-width="4"/><ellipse cx="1110" cy="42" rx="25" ry="10" fill="#131c25"/><ellipse cx="1110" cy="44" rx="15" ry="4" fill="#fff2c9" opacity=".95"/><path d="M1450 0V30" stroke="#0f171f" stroke-width="4"/><ellipse cx="1450" cy="42" rx="25" ry="10" fill="#131c25"/><ellipse cx="1450" cy="44" rx="15" ry="4" fill="#fff2c9" opacity=".95"/><path d="M1780 0V30" stroke="#0f171f" stroke-width="4"/><ellipse cx="1780" cy="42" rx="25" ry="10" fill="#131c25"/><ellipse cx="1780" cy="44" rx="15" ry="4" fill="#fff2c9" opacity=".95"/><rect x="0" y="72" width="1920" height="406" fill="url(#sky)"/><rect x="20" y="398" width="66" height="80" rx="2" fill="#8aa9b8" opacity=".56"/><rect x="32" y="418" width="10" height="7" fill="#f2f8f7" opacity=".52"/><rect x="58" y="418" width="10" height="7" fill="#f2f8f7" opacity=".44"/><rect x="32" y="446" width="10" height="7" fill="#f2f8f7" opacity=".52"/><rect x="58" y="446" width="10" height="7" fill="#f2f8f7" opacity=".44"/><rect x="115" y="361" width="74" height="117" rx="2" fill="#a2bbc7" opacity=".56"/><rect x="127" y="381" width="10" height="7" fill="#f2f8f7" opacity=".52"/><rect x="153" y="381" width="10" height="7" fill="#f2f8f7" opacity=".44"/><rect x="127" y="409" width="10" height="7" fill="#f2f8f7" opacity=".52"/><rect x="153" y="409" width="10" height="7" fill="#f2f8f7" opacity=".44"/><rect x="127" y="437" width="10" height="7" fill="#f2f8f7" opacity=".52"/><rect x="153" y="437" width="10" height="7" fill="#f2f8f7" opacity=".44"/><rect x="220" y="324" width="82" height="154" rx="2" fill="#7695a5" opacity=".56"/><rect x="232" y="344" width="10" height="7" fill="#f2f8f7" opacity=".52"/><rect x="258" y="344" width="10" height="7" fill="#f2f8f7" opacity=".44"/><rect x="232" y="372" width="10" height="7" fill="#f2f8f7" opacity=".52"/><rect x="258" y="372" width="10" height="7" fill="#f2f8f7" opacity=".44"/><rect x="232" y="400" width="10" height="7" fill="#f2f8f7" opacity=".52"/><rect x="258" y="400" width="10" height="7" fill="#f2f8f7" opacity=".44"/><rect x="232" y="428" width="10" height="7" fill="#f2f8f7" opacity=".52"/><rect x="258" y="428" width="10" height="7" fill="#f2f8f7" opacity=".44"/><rect x="232" y="456" width="10" height="7" fill="#f2f8f7" opacity=".52"/><rect x="258" y="456" width="10" height="7" fill="#f2f8f7" opacity=".44"/><rect x="335" y="287" width="66" height="191" rx="2" fill="#8aa9b8" opacity=".56"/><rect x="347" y="307" width="10" height="7" fill="#f2f8f7" opacity=".52"/><rect x="373" y="307" width="10" height="7" fill="#f2f8f7" opacity=".44"/><rect x="347" y="335" width="10" height="7" fill="#f2f8f7" opacity=".52"/><rect x="373" y="335" width="10" height="7" fill="#f2f8f7" opacity=".44"/><rect x="347" y="363" width="10" height="7" fill="#f2f8f7" opacity=".52"/><rect x="373" y="363" width="10" height="7" fill="#f2f8f7" opacity=".44"/><rect x="347" y="391" width="10" height="7" fill="#f2f8f7" opacity=".52"/><rect x="373" y="391" width="10" height="7" fill="#f2f8f7" opacity=".44"/><rect x="347" y="419" width="10" height="7" fill="#f2f8f7" opacity=".52"/><rect x="373" y="419" width="10" height="7" fill="#f2f8f7" opacity=".44"/><rect x="347" y="447" width="10" height="7" fill="#f2f8f7" opacity=".52"/><rect x="373" y="447" width="10" height="7" fill="#f2f8f7" opacity=".44"/><rect x="455" y="250" width="74" height="228" rx="2" fill="#a2bbc7" opacity=".56"/><rect x="467" y="270" width="10" height="7" fill="#f2f8f7" opacity=".52"/><rect x="493" y="270" width="10" height="7" fill="#f2f8f7" opacity=".44"/><rect x="467" y="298" width="10" height="7" fill="#f2f8f7" opacity=".52"/><rect x="493" y="298" width="10" height="7" fill="#f2f8f7" opacity=".44"/><rect x="467" y="326" width="10" height="7" fill="#f2f8f7" opacity=".52"/><rect x="493" y="326" width="10" height="7" fill="#f2f8f7" opacity=".44"/><rect x="467" y="354" width="10" height="7" fill="#f2f8f7" opacity=".52"/><rect x="493" y="354" width="10" height="7" fill="#f2f8f7" opacity=".44"/><rect x="467" y="382" width="10" height="7" fill="#f2f8f7" opacity=".52"/><rect x="493" y="382" width="10" height="7" fill="#f2f8f7" opacity=".44"/><rect x="467" y="410" width="10" height="7" fill="#f2f8f7" opacity=".52"/><rect x="493" y="410" width="10" height="7" fill="#f2f8f7" opacity=".44"/><rect x="467" y="438" width="10" height="7" fill="#f2f8f7" opacity=".52"/><rect x="493" y="438" width="10" height="7" fill="#f2f8f7" opacity=".44"/><rect x="590" y="213" width="82" height="265" rx="2" fill="#7695a5" opacity=".56"/><rect x="602" y="233" width="10" height="7" fill="#f2f8f7" opacity=".52"/><rect x="628" y="233" width="10" height="7" fill="#f2f8f7" opacity=".44"/><rect x="602" y="261" width="10" height="7" fill="#f2f8f7" opacity=".52"/><rect x="628" y="261" width="10" height="7" fill="#f2f8f7" opacity=".44"/><rect x="602" y="289" width="10" height="7" fill="#f2f8f7" opacity=".52"/><rect x="628" y="289" width="10" height="7" fill="#f2f8f7" opacity=".44"/><rect x="602" y="317" width="10" height="7" fill="#f2f8f7" opacity=".52"/><rect x="628" y="317" width="10" height="7" fill="#f2f8f7" opacity=".44"/><rect x="602" y="345" width="10" height="7" fill="#f2f8f7" opacity=".52"/><rect x="628" y="345" width="10" height="7" fill="#f2f8f7" opacity=".44"/><rect x="602" y="373" width="10" height="7" fill="#f2f8f7" opacity=".52"/><rect x="628" y="373" width="10" height="7" fill="#f2f8f7" opacity=".44"/><rect x="602" y="401" width="10" height="7" fill="#f2f8f7" opacity=".52"/><rect x="628" y="401" width="10" height="7" fill="#f2f8f7" opacity=".44"/><rect x="602" y="429" width="10" height="7" fill="#f2f8f7" opacity=".52"/><rect x="628" y="429" width="10" height="7" fill="#f2f8f7" opacity=".44"/><rect x="602" y="457" width="10" height="7" fill="#f2f8f7" opacity=".52"/><rect x="628" y="457" width="10" height="7" fill="#f2f8f7" opacity=".44"/><rect x="720" y="366" width="66" height="112" rx="2" fill="#8aa9b8" opacity=".56"/><rect x="732" y="386" width="10" height="7" fill="#f2f8f7" opacity=".52"/><rect x="758" y="386" width="10" height="7" fill="#f2f8f7" opacity=".44"/><rect x="732" y="414" width="10" height="7" fill="#f2f8f7" opacity=".52"/><rect x="758" y="414" width="10" height="7" fill="#f2f8f7" opacity=".44"/><rect x="732" y="442" width="10" height="7" fill="#f2f8f7" opacity=".52"/><rect x="758" y="442" width="10" height="7" fill="#f2f8f7" opacity=".44"/><rect x="850" y="329" width="74" height="149" rx="2" fill="#a2bbc7" opacity=".56"/><rect x="862" y="349" width="10" height="7" fill="#f2f8f7" opacity=".52"/><rect x="888" y="349" width="10" height="7" fill="#f2f8f7" opacity=".44"/><rect x="862" y="377" width="10" height="7" fill="#f2f8f7" opacity=".52"/><rect x="888" y="377" width="10" height="7" fill="#f2f8f7" opacity=".44"/><rect x="862" y="405" width="10" height="7" fill="#f2f8f7" opacity=".52"/><rect x="888" y="405" width="10" height="7" fill="#f2f8f7" opacity=".44"/><rect x="862" y="433" width="10" height="7" fill="#f2f8f7" opacity=".52"/><rect x="888" y="433" width="10" height="7" fill="#f2f8f7" opacity=".44"/><rect x="862" y="461" width="10" height="7" fill="#f2f8f7" opacity=".52"/><rect x="888" y="461" width="10" height="7" fill="#f2f8f7" opacity=".44"/><rect x="985" y="292" width="82" height="186" rx="2" fill="#7695a5" opacity=".56"/><rect x="997" y="312" width="10" height="7" fill="#f2f8f7" opacity=".52"/><rect x="1023" y="312" width="10" height="7" fill="#f2f8f7" opacity=".44"/><rect x="997" y="340" width="10" height="7" fill="#f2f8f7" opacity=".52"/><rect x="1023" y="340" width="10" height="7" fill="#f2f8f7" opacity=".44"/><rect x="997" y="368" width="10" height="7" fill="#f2f8f7" opacity=".52"/><rect x="1023" y="368" width="10" height="7" fill="#f2f8f7" opacity=".44"/><rect x="997" y="396" width="10" height="7" fill="#f2f8f7" opacity=".52"/><rect x="1023" y="396" width="10" height="7" fill="#f2f8f7" opacity=".44"/><rect x="997" y="424" width="10" height="7" fill="#f2f8f7" opacity=".52"/><rect x="1023" y="424" width="10" height="7" fill="#f2f8f7" opacity=".44"/><rect x="997" y="452" width="10" height="7" fill="#f2f8f7" opacity=".52"/><rect x="1023" y="452" width="10" height="7" fill="#f2f8f7" opacity=".44"/><rect x="1115" y="255" width="66" height="223" rx="2" fill="#8aa9b8" opacity=".56"/><rect x="1127" y="275" width="10" height="7" fill="#f2f8f7" opacity=".52"/><rect x="1153" y="275" width="10" height="7" fill="#f2f8f7" opacity=".44"/><rect x="1127" y="303" width="10" height="7" fill="#f2f8f7" opacity=".52"/><rect x="1153" y="303" width="10" height="7" fill="#f2f8f7" opacity=".44"/><rect x="1127" y="331" width="10" height="7" fill="#f2f8f7" opacity=".52"/><rect x="1153" y="331" width="10" height="7" fill="#f2f8f7" opacity=".44"/><rect x="1127" y="359" width="10" height="7" fill="#f2f8f7" opacity=".52"/><rect x="1153" y="359" width="10" height="7" fill="#f2f8f7" opacity=".44"/><rect x="1127" y="387" width="10" height="7" fill="#f2f8f7" opacity=".52"/><rect x="1153" y="387" width="10" height="7" fill="#f2f8f7" opacity=".44"/><rect x="1127" y="415" width="10" height="7" fill="#f2f8f7" opacity=".52"/><rect x="1153" y="415" width="10" height="7" fill="#f2f8f7" opacity=".44"/><rect x="1127" y="443" width="10" height="7" fill="#f2f8f7" opacity=".52"/><rect x="1153" y="443" width="10" height="7" fill="#f2f8f7" opacity=".44"/><rect x="1250" y="218" width="74" height="260" rx="2" fill="#a2bbc7" opacity=".56"/><rect x="1262" y="238" width="10" height="7" fill="#f2f8f7" opacity=".52"/><rect x="1288" y="238" width="10" height="7" fill="#f2f8f7" opacity=".44"/><rect x="1262" y="266" width="10" height="7" fill="#f2f8f7" opacity=".52"/><rect x="1288" y="266" width="10" height="7" fill="#f2f8f7" opacity=".44"/><rect x="1262" y="294" width="10" height="7" fill="#f2f8f7" opacity=".52"/><rect x="1288" y="294" width="10" height="7" fill="#f2f8f7" opacity=".44"/><rect x="1262" y="322" width="10" height="7" fill="#f2f8f7" opacity=".52"/><rect x="1288" y="322" width="10" height="7" fill="#f2f8f7" opacity=".44"/><rect x="1262" y="350" width="10" height="7" fill="#f2f8f7" opacity=".52"/><rect x="1288" y="350" width="10" height="7" fill="#f2f8f7" opacity=".44"/><rect x="1262" y="378" width="10" height="7" fill="#f2f8f7" opacity=".52"/><rect x="1288" y="378" width="10" height="7" fill="#f2f8f7" opacity=".44"/><rect x="1262" y="406" width="10" height="7" fill="#f2f8f7" opacity=".52"/><rect x="1288" y="406" width="10" height="7" fill="#f2f8f7" opacity=".44"/><rect x="1262" y="434" width="10" height="7" fill="#f2f8f7" opacity=".52"/><rect x="1288" y="434" width="10" height="7" fill="#f2f8f7" opacity=".44"/><rect x="1262" y="462" width="10" height="7" fill="#f2f8f7" opacity=".52"/><rect x="1288" y="462" width="10" height="7" fill="#f2f8f7" opacity=".44"/><rect x="1385" y="371" width="82" height="107" rx="2" fill="#7695a5" opacity=".56"/><rect x="1397" y="391" width="10" height="7" fill="#f2f8f7" opacity=".52"/><rect x="1423" y="391" width="10" height="7" fill="#f2f8f7" opacity=".44"/><rect x="1397" y="419" width="10" height="7" fill="#f2f8f7" opacity=".52"/><rect x="1423" y="419" width="10" height="7" fill="#f2f8f7" opacity=".44"/><rect x="1397" y="447" width="10" height="7" fill="#f2f8f7" opacity=".52"/><rect x="1423" y="447" width="10" height="7" fill="#f2f8f7" opacity=".44"/><rect x="1515" y="334" width="66" height="144" rx="2" fill="#8aa9b8" opacity=".56"/><rect x="1527" y="354" width="10" height="7" fill="#f2f8f7" opacity=".52"/><rect x="1553" y="354" width="10" height="7" fill="#f2f8f7" opacity=".44"/><rect x="1527" y="382" width="10" height="7" fill="#f2f8f7" opacity=".52"/><rect x="1553" y="382" width="10" height="7" fill="#f2f8f7" opacity=".44"/><rect x="1527" y="410" width="10" height="7" fill="#f2f8f7" opacity=".52"/><rect x="1553" y="410" width="10" height="7" fill="#f2f8f7" opacity=".44"/><rect x="1527" y="438" width="10" height="7" fill="#f2f8f7" opacity=".52"/><rect x="1553" y="438" width="10" height="7" fill="#f2f8f7" opacity=".44"/><rect x="1645" y="297" width="74" height="181" rx="2" fill="#a2bbc7" opacity=".56"/><rect x="1657" y="317" width="10" height="7" fill="#f2f8f7" opacity=".52"/><rect x="1683" y="317" width="10" height="7" fill="#f2f8f7" opacity=".44"/><rect x="1657" y="345" width="10" height="7" fill="#f2f8f7" opacity=".52"/><rect x="1683" y="345" width="10" height="7" fill="#f2f8f7" opacity=".44"/><rect x="1657" y="373" width="10" height="7" fill="#f2f8f7" opacity=".52"/><rect x="1683" y="373" width="10" height="7" fill="#f2f8f7" opacity=".44"/><rect x="1657" y="401" width="10" height="7" fill="#f2f8f7" opacity=".52"/><rect x="1683" y="401" width="10" height="7" fill="#f2f8f7" opacity=".44"/><rect x="1657" y="429" width="10" height="7" fill="#f2f8f7" opacity=".52"/><rect x="1683" y="429" width="10" height="7" fill="#f2f8f7" opacity=".44"/><rect x="1657" y="457" width="10" height="7" fill="#f2f8f7" opacity=".52"/><rect x="1683" y="457" width="10" height="7" fill="#f2f8f7" opacity=".44"/><rect x="1775" y="260" width="82" height="218" rx="2" fill="#7695a5" opacity=".56"/><rect x="1787" y="280" width="10" height="7" fill="#f2f8f7" opacity=".52"/><rect x="1813" y="280" width="10" height="7" fill="#f2f8f7" opacity=".44"/><rect x="1787" y="308" width="10" height="7" fill="#f2f8f7" opacity=".52"/><rect x="1813" y="308" width="10" height="7" fill="#f2f8f7" opacity=".44"/><rect x="1787" y="336" width="10" height="7" fill="#f2f8f7" opacity=".52"/><rect x="1813" y="336" width="10" height="7" fill="#f2f8f7" opacity=".44"/><rect x="1787" y="364" width="10" height="7" fill="#f2f8f7" opacity=".52"/><rect x="1813" y="364" width="10" height="7" fill="#f2f8f7" opacity=".44"/><rect x="1787" y="392" width="10" height="7" fill="#f2f8f7" opacity=".52"/><rect x="1813" y="392" width="10" height="7" fill="#f2f8f7" opacity=".44"/><rect x="1787" y="420" width="10" height="7" fill="#f2f8f7" opacity=".52"/><rect x="1813" y="420" width="10" height="7" fill="#f2f8f7" opacity=".44"/><rect x="1787" y="448" width="10" height="7" fill="#f2f8f7" opacity=".52"/><rect x="1813" y="448" width="10" height="7" fill="#f2f8f7" opacity=".44"/><rect x="1875" y="223" width="66" height="255" rx="2" fill="#8aa9b8" opacity=".56"/><rect x="1887" y="243" width="10" height="7" fill="#f2f8f7" opacity=".52"/><rect x="1913" y="243" width="10" height="7" fill="#f2f8f7" opacity=".44"/><rect x="1887" y="271" width="10" height="7" fill="#f2f8f7" opacity=".52"/><rect x="1913" y="271" width="10" height="7" fill="#f2f8f7" opacity=".44"/><rect x="1887" y="299" width="10" height="7" fill="#f2f8f7" opacity=".52"/><rect x="1913" y="299" width="10" height="7" fill="#f2f8f7" opacity=".44"/><rect x="1887" y="327" width="10" height="7" fill="#f2f8f7" opacity=".52"/><rect x="1913" y="327" width="10" height="7" fill="#f2f8f7" opacity=".44"/><rect x="1887" y="355" width="10" height="7" fill="#f2f8f7" opacity=".52"/><rect x="1913" y="355" width="10" height="7" fill="#f2f8f7" opacity=".44"/><rect x="1887" y="383" width="10" height="7" fill="#f2f8f7" opacity=".52"/><rect x="1913" y="383" width="10" height="7" fill="#f2f8f7" opacity=".44"/><rect x="1887" y="411" width="10" height="7" fill="#f2f8f7" opacity=".52"/><rect x="1913" y="411" width="10" height="7" fill="#f2f8f7" opacity=".44"/><rect x="1887" y="439" width="10" height="7" fill="#f2f8f7" opacity=".52"/><rect x="1913" y="439" width="10" height="7" fill="#f2f8f7" opacity=".44"/><rect x="0" y="82" width="15" height="408" fill="#304451" opacity=".86"/><rect x="640" y="82" width="15" height="408" fill="#304451" opacity=".86"/><rect x="960" y="82" width="15" height="408" fill="#304451" opacity=".86"/><rect x="1280" y="82" width="15" height="408" fill="#304451" opacity=".86"/><rect x="1600" y="82" width="15" height="408" fill="#304451" opacity=".86"/><rect x="1920" y="82" width="15" height="408" fill="#304451" opacity=".86"/><rect x="0" y="480" width="1920" height="16" fill="#66747d"/><rect y="490" width="1920" height="100" fill="#e8e4dc"/><g filter="url(#softShadow)"><rect x="-40" y="447" width="360" height="24" rx="4" fill="url(#wood)"/><rect x="-22" y="471" width="15" height="126" fill="#596066"/><rect x="286" y="471" width="15" height="126" fill="#596066"/><rect x="32" y="341" width="142" height="82" rx="7" fill="#202d3a"/><rect x="42" y="351" width="122" height="58" rx="3" fill="#1f4b6b"/><path d="M60 369h60M60 386h40" stroke="#75b9da" stroke-width="4" opacity=".6"/><rect x="98.0" y="423" width="10" height="18" fill="#454c51"/><rect x="50" y="439" width="82" height="7" rx="2" fill="#d5d8d8"/><rect x="145" y="441" width="16" height="5" rx="2" fill="#6b7175"/><rect x="246" y="416" width="25" height="31" rx="4" fill="#f4efe4"/><rect x="-25" y="489" width="58" height="88" rx="4" fill="#8d7766"/><path d="M-13 512h34M-13 535h34" stroke="#d8c7b4" stroke-width="3"/><rect x="150.4" y="477" width="82" height="92" rx="14" fill="#33404d"/><rect x="160.4" y="489" width="62" height="54" rx="10" fill="#506071"/><path d="M190.4 569v35m-30 0h60" stroke="#30363b" stroke-width="9" stroke-linecap="round"/></g><g filter="url(#softShadow)"><rect x="355" y="447" width="355" height="24" rx="4" fill="url(#wood)"/><rect x="373" y="471" width="15" height="126" fill="#596066"/><rect x="676" y="471" width="15" height="126" fill="#596066"/><rect x="397" y="348" width="112" height="69" rx="7" fill="#202d3a"/><rect x="407" y="358" width="92" height="45" rx="3" fill="#274d60"/><path d="M425 376h47M425 393h31" stroke="#75b9da" stroke-width="4" opacity=".6"/><rect x="448.0" y="417" width="10" height="18" fill="#454c51"/><rect x="524" y="342" width="124" height="76" rx="7" fill="#202d3a"/><rect x="534" y="352" width="104" height="52" rx="3" fill="#1f4b6b"/><path d="M552 370h52M552 387h35" stroke="#75b9da" stroke-width="4" opacity=".6"/><rect x="581.0" y="418" width="10" height="18" fill="#454c51"/><rect x="445" y="439" width="82" height="7" rx="2" fill="#d5d8d8"/><rect x="540" y="441" width="16" height="5" rx="2" fill="#6b7175"/><rect x="636" y="416" width="25" height="31" rx="4" fill="#f4efe4"/><rect x="373" y="413" width="10" height="34" fill="#e5b64c"/><rect x="386" y="404" width="10" height="43" fill="#6c91a5"/><rect x="399" y="418" width="10" height="29" fill="#a15f58"/><rect x="542.2" y="477" width="82" height="92" rx="14" fill="#33404d"/><rect x="552.2" y="489" width="62" height="54" rx="10" fill="#506071"/><path d="M582.2 569v35m-30 0h60" stroke="#30363b" stroke-width="9" stroke-linecap="round"/></g><g filter="url(#softShadow)"><rect x="760" y="447" width="370" height="24" rx="4" fill="url(#wood)"/><rect x="778" y="471" width="15" height="126" fill="#596066"/><rect x="1096" y="471" width="15" height="126" fill="#596066"/><rect x="848" y="339" width="148" height="84" rx="7" fill="#202d3a"/><rect x="858" y="349" width="128" height="60" rx="3" fill="#1f4b6b"/><path d="M876 367h62M876 384h41" stroke="#75b9da" stroke-width="4" opacity=".6"/><rect x="917.0" y="423" width="10" height="18" fill="#454c51"/><rect x="850" y="439" width="82" height="7" rx="2" fill="#d5d8d8"/><rect x="945" y="441" width="16" height="5" rx="2" fill="#6b7175"/><rect x="1056" y="416" width="25" height="31" rx="4" fill="#f4efe4"/><rect x="775" y="489" width="58" height="88" rx="4" fill="#8d7766"/><path d="M787 512h34M787 535h34" stroke="#d8c7b4" stroke-width="3"/><rect x="956.8" y="477" width="82" height="92" rx="14" fill="#33404d"/><rect x="966.8" y="489" width="62" height="54" rx="10" fill="#506071"/><path d="M996.8 569v35m-30 0h60" stroke="#30363b" stroke-width="9" stroke-linecap="round"/></g><g filter="url(#softShadow)"><rect x="1190" y="447" width="350" height="24" rx="4" fill="url(#wood)"/><rect x="1208" y="471" width="15" height="126" fill="#596066"/><rect x="1506" y="471" width="15" height="126" fill="#596066"/><rect x="1232" y="348" width="112" height="69" rx="7" fill="#202d3a"/><rect x="1242" y="358" width="92" height="45" rx="3" fill="#274d60"/><path d="M1260 376h47M1260 393h31" stroke="#75b9da" stroke-width="4" opacity=".6"/><rect x="1283.0" y="417" width="10" height="18" fill="#454c51"/><rect x="1359" y="342" width="124" height="76" rx="7" fill="#202d3a"/><rect x="1369" y="352" width="104" height="52" rx="3" fill="#1f4b6b"/><path d="M1387 370h52M1387 387h35" stroke="#75b9da" stroke-width="4" opacity=".6"/><rect x="1416.0" y="418" width="10" height="18" fill="#454c51"/><rect x="1280" y="439" width="82" height="7" rx="2" fill="#d5d8d8"/><rect x="1375" y="441" width="16" height="5" rx="2" fill="#6b7175"/><rect x="1466" y="416" width="25" height="31" rx="4" fill="#f4efe4"/><rect x="1208" y="413" width="10" height="34" fill="#e5b64c"/><rect x="1221" y="404" width="10" height="43" fill="#6c91a5"/><rect x="1234" y="418" width="10" height="29" fill="#a15f58"/><rect x="1374.0" y="477" width="82" height="92" rx="14" fill="#33404d"/><rect x="1384.0" y="489" width="62" height="54" rx="10" fill="#506071"/><path d="M1414.0 569v35m-30 0h60" stroke="#30363b" stroke-width="9" stroke-linecap="round"/></g><g filter="url(#softShadow)"><rect x="1570" y="447" width="390" height="24" rx="4" fill="url(#wood)"/><rect x="1588" y="471" width="15" height="126" fill="#596066"/><rect x="1926" y="471" width="15" height="126" fill="#596066"/><rect x="1642" y="341" width="142" height="82" rx="7" fill="#202d3a"/><rect x="1652" y="351" width="122" height="58" rx="3" fill="#1f4b6b"/><path d="M1670 369h60M1670 386h40" stroke="#75b9da" stroke-width="4" opacity=".6"/><rect x="1708.0" y="423" width="10" height="18" fill="#454c51"/><rect x="1660" y="439" width="82" height="7" rx="2" fill="#d5d8d8"/><rect x="1755" y="441" width="16" height="5" rx="2" fill="#6b7175"/><rect x="1886" y="416" width="25" height="31" rx="4" fill="#f4efe4"/><rect x="1585" y="489" width="58" height="88" rx="4" fill="#8d7766"/><path d="M1597 512h34M1597 535h34" stroke="#d8c7b4" stroke-width="3"/><rect x="1779.6" y="477" width="82" height="92" rx="14" fill="#33404d"/><rect x="1789.6" y="489" width="62" height="54" rx="10" fill="#506071"/><path d="M1819.6 569v35m-30 0h60" stroke="#30363b" stroke-width="9" stroke-linecap="round"/></g><g filter="url(#softShadow)"><ellipse cx="293.9" cy="356.6" rx="14.0" ry="33.5" transform="rotate(-35 293.9 356.6)" fill="#347a49"/><ellipse cx="308.7" cy="343.4" rx="14.0" ry="33.5" transform="rotate(-13 308.7 343.4)" fill="#428d55"/><ellipse cx="327.5" cy="345.7" rx="14.0" ry="33.5" transform="rotate(20 327.5 345.7)" fill="#3e8550"/><ellipse cx="345.4" cy="362.9" rx="14.0" ry="33.5" transform="rotate(42 345.4 362.9)" fill="#4a965a"/><ellipse cx="286.9" cy="376.1" rx="14.0" ry="33.5" transform="rotate(-57 286.9 376.1)" fill="#2f7042"/><ellipse cx="325.1" cy="372.2" rx="14.0" ry="33.5" transform="rotate(5 325.1 372.2)" fill="#3e8850"/><rect x="297.0" y="391.0" width="49.9" height="54.6" rx="8" fill="#e6e2da"/><path d="M300.9 398.0H343.1" stroke="#bbb5aa"/></g><g filter="url(#softShadow)"><ellipse cx="1477.0" cy="351.7" rx="15.5" ry="37.0" transform="rotate(-35 1477.0 351.7)" fill="#347a49"/><ellipse cx="1493.4" cy="337.1" rx="15.5" ry="37.0" transform="rotate(-13 1493.4 337.1)" fill="#428d55"/><ellipse cx="1514.0" cy="339.6" rx="15.5" ry="37.0" transform="rotate(20 1514.0 339.6)" fill="#3e8550"/><ellipse cx="1533.8" cy="358.6" rx="15.5" ry="37.0" transform="rotate(42 1533.8 358.6)" fill="#4a965a"/><ellipse cx="1469.3" cy="373.2" rx="15.5" ry="37.0" transform="rotate(-57 1469.3 373.2)" fill="#2f7042"/><ellipse cx="1511.4" cy="368.9" rx="15.5" ry="37.0" transform="rotate(5 1511.4 368.9)" fill="#3e8850"/><rect x="1480.5" y="389.5" width="55.0" height="60.2" rx="8" fill="#e6e2da"/><path d="M1484.8 397.3H1531.2" stroke="#bbb5aa"/></g><g opacity=".92"><rect x="690" y="155" width="112" height="64" rx="5" fill="#f5f3ed" stroke="#7d8790" stroke-width="3"/><path d="M710 178h60M710 194h38" stroke="#89a2ad" stroke-width="4"/><rect x="1148" y="138" width="74" height="96" rx="4" fill="#f1eee8"/><rect x="1160" y="151" width="22" height="18" fill="#f2c96b"/><rect x="1190" y="151" width="20" height="28" fill="#99c1d0"/><rect x="1160" y="186" width="46" height="5" fill="#aaa29a"/></g><rect y="590" width="1920" height="230" fill="url(#floor)"/><rect y="588" width="1920" height="5" fill="#fffef9"/><rect y="597" width="1920" height="7" fill="#2d3439" opacity=".82"/><path d="M0 604V820" stroke="#9a9892" stroke-width="1" opacity=".44"/><path d="M160 604V820" stroke="#9a9892" stroke-width="1" opacity=".44"/><path d="M320 604V820" stroke="#9a9892" stroke-width="1" opacity=".44"/><path d="M480 604V820" stroke="#9a9892" stroke-width="1" opacity=".44"/><path d="M640 604V820" stroke="#9a9892" stroke-width="1" opacity=".44"/><path d="M800 604V820" stroke="#9a9892" stroke-width="1" opacity=".44"/><path d="M960 604V820" stroke="#9a9892" stroke-width="1" opacity=".44"/><path d="M1120 604V820" stroke="#9a9892" stroke-width="1" opacity=".44"/><path d="M1280 604V820" stroke="#9a9892" stroke-width="1" opacity=".44"/><path d="M1440 604V820" stroke="#9a9892" stroke-width="1" opacity=".44"/><path d="M1600 604V820" stroke="#9a9892" stroke-width="1" opacity=".44"/><path d="M1760 604V820" stroke="#9a9892" stroke-width="1" opacity=".44"/><rect x="20" y="649" width="42" height="3" rx="1.5" fill="#53595d" opacity=".20"/><rect x="190" y="649" width="42" height="3" rx="1.5" fill="#53595d" opacity=".20"/><rect x="360" y="649" width="42" height="3" rx="1.5" fill="#53595d" opacity=".20"/><rect x="530" y="649" width="42" height="3" rx="1.5" fill="#53595d" opacity=".20"/><rect x="700" y="649" width="42" height="3" rx="1.5" fill="#53595d" opacity=".20"/><rect x="870" y="649" width="42" height="3" rx="1.5" fill="#53595d" opacity=".20"/><rect x="1040" y="649" width="42" height="3" rx="1.5" fill="#53595d" opacity=".20"/><rect x="1210" y="649" width="42" height="3" rx="1.5" fill="#53595d" opacity=".20"/><rect x="1380" y="649" width="42" height="3" rx="1.5" fill="#53595d" opacity=".20"/><rect x="1550" y="649" width="42" height="3" rx="1.5" fill="#53595d" opacity=".20"/><rect x="1720" y="649" width="42" height="3" rx="1.5" fill="#53595d" opacity=".20"/><rect x="1890" y="649" width="42" height="3" rx="1.5" fill="#53595d" opacity=".20"/></svg>